<?xml version="1.0" encoding="UTF-8"?>
<svg preserveAspectRatio="xMidYMid slice" version="1.1" viewBox="0 0 800 800" xmlns="http://www.w3.org/2000/svg">
<defs>
<pattern id="a" width="20" height="20" shape-rendering="crispEdges" patternTransform="translate(0) scale(40)" patternUnits="userSpaceOnUse">
<rect width="1" height="1" fill="hsl(0, 0%, 0%)"/>
<rect x="1" width="1" height="1" fill="hsl(0, 0%, 0%)"/>
<rect x="2" width="1" height="1" fill="hsl(0, 0%, 0%)"/>
<rect x="3" width="1" height="1" fill="hsl(0, 0%, 0%)"/>
<rect x="4" width="1" height="1" fill="hsl(0, 0%, 0%)"/>
<rect x="5" width="1" height="1" fill="hsl(0, 0%, 0%)"/>
<rect x="6" width="1" height="1" fill="hsl(0, 0%, 0%)"/>
<rect x="7" width="1" height="1" fill="hsl(105, 69%, 30%)"/>
<rect x="8" width="1" height="1" fill="hsl(0, 0%, 0%)"/>
<rect x="9" width="1" height="1" fill="hsl(0, 0%, 0%)"/>
<rect x="10" width="1" height="1" fill="hsl(0, 0%, 0%)"/>
<rect x="11" width="1" height="1" fill="hsl(0, 0%, 0%)"/>
<rect x="12" width="1" height="1" fill="hsl(0, 0%, 0%)"/>
<rect x="13" width="1" height="1" fill="hsl(0, 0%, 0%)"/>
<rect x="14" width="1" height="1" fill="hsl(0, 0%, 0%)"/>
<rect x="15" width="1" height="1" fill="hsl(105, 69%, 30%)"/>
<rect x="16" width="1" height="1" fill="hsl(0, 0%, 0%)"/>
<rect x="17" width="1" height="1" fill="hsl(0, 0%, 0%)"/>
<rect x="18" width="1" height="1" fill="hsl(0, 0%, 0%)"/>
<rect x="19" width="1" height="1" fill="hsl(0, 0%, 0%)"/>
<rect y="1" width="1" height="1" fill="hsl(0, 0%, 0%)"/>
<rect x="2" y="1" width="1" height="1" fill="hsl(190, 100%, 70%)"/>
<rect x="3" y="1" width="1" height="1" fill="hsl(190, 100%, 70%)"/>
<rect x="4" y="1" width="1" height="1" fill="hsl(190, 100%, 70%)"/>
<rect x="5" y="1" width="1" height="1" fill="hsl(190, 100%, 70%)"/>
<rect x="6" y="1" width="1" height="1" fill="hsl(105, 69%, 30%)"/>
<rect x="7" y="1" width="1" height="1" fill="hsl(105, 39%, 30%)"/>
<rect x="8" y="1" width="1" height="1" fill="hsl(190, 100%, 70%)"/>
<rect x="9" y="1" width="1" height="1" fill="hsl(105, 69%, 30%)"/>
<rect x="10" y="1" width="1" height="1" fill="hsl(190, 100%, 70%)"/>
<rect x="11" y="1" width="1" height="1" fill="hsl(190, 100%, 70%)"/>
<rect x="12" y="1" width="1" height="1" fill="hsl(105, 69%, 30%)"/>
<rect x="13" y="1" width="1" height="1" fill="hsl(190, 100%, 70%)"/>
<rect x="14" y="1" width="1" height="1" fill="hsl(190, 100%, 70%)"/>
<rect x="15" y="1" width="1" height="1" fill="hsl(105, 39%, 30%)"/>
<rect x="16" y="1" width="1" height="1" fill="hsl(105, 39%, 30%)"/>
<rect x="17" y="1" width="1" height="1" fill="hsl(105, 69%, 30%)"/>
<rect x="18" y="1" width="1" height="1" fill="hsl(190, 100%, 70%)"/>
<rect x="19" y="1" width="1" height="1" fill="hsl(0, 0%, 0%)"/>
<rect y="2" width="1" height="1" fill="hsl(0, 0%, 0%)"/>
<rect x="1" y="2" width="1" height="1" fill="hsl(0, 0%, 100%)"/>
<rect x="3" y="2" width="1" height="1" fill="hsl(190, 100%, 70%)"/>
<rect x="4" y="2" width="1" height="1" fill="hsl(190, 100%, 70%)"/>
<rect x="5" y="2" width="1" height="1" fill="hsl(105, 69%, 30%)"/>
<rect x="6" y="2" width="1" height="1" fill="hsl(105, 39%, 30%)"/>
<rect x="7" y="2" width="1" height="1" fill="hsl(105, 69%, 30%)"/>
<rect x="8" y="2" width="1" height="1" fill="hsl(190, 100%, 70%)"/>
<rect x="9" y="2" width="1" height="1" fill="hsl(105, 69%, 30%)"/>
<rect x="10" y="2" width="1" height="1" fill="hsl(105, 69%, 30%)"/>
<rect x="11" y="2" width="1" height="1" fill="hsl(105, 69%, 30%)"/>
<rect x="12" y="2" width="1" height="1" fill="hsl(190, 100%, 70%)"/>
<rect x="13" y="2" width="1" height="1" fill="hsl(190, 100%, 70%)"/>
<rect x="14" y="2" width="1" height="1" fill="hsl(190, 100%, 70%)"/>
<rect x="15" y="2" width="1" height="1" fill="hsl(105, 39%, 30%)"/>
<rect x="16" y="2" width="1" height="1" fill="hsl(105, 69%, 30%)"/>
<rect x="17" y="2" width="1" height="1" fill="hsl(105, 39%, 30%)"/>
<rect x="18" y="2" width="1" height="1" fill="hsl(105, 69%, 30%)"/>
<rect x="19" y="2" width="1" height="1" fill="hsl(0, 0%, 0%)"/>
<rect y="3" width="1" height="1" fill="hsl(0, 0%, 0%)"/>
<rect x="2" y="3" width="1" height="1" fill="hsl(0, 0%, 100%)"/>
<rect x="3" y="3" width="1" height="1" fill="hsl(190, 100%, 70%)"/>
<rect x="4" y="3" width="1" height="1" fill="hsl(105, 69%, 30%)"/>
<rect x="5" y="3" width="1" height="1" fill="hsl(105, 39%, 30%)"/>
<rect x="6" y="3" width="1" height="1" fill="hsl(105, 69%, 30%)"/>
<rect x="7" y="3" width="1" height="1" fill="hsl(190, 100%, 70%)"/>
<rect x="8" y="3" width="1" height="1" fill="hsl(105, 69%, 30%)"/>
<rect x="9" y="3" width="1" height="1" fill="hsla(353, 98%, 41%, 1.00)"/>
<rect x="10" y="3" width="1" height="1" fill="hsl(105, 35%, 30%)"/>
<rect x="11" y="3" width="1" height="1" fill="hsl(105, 69%, 30%)"/>
<rect x="12" y="3" width="1" height="1" fill="hsl(105, 69%, 30%)"/>
<rect x="13" y="3" width="1" height="1" fill="hsl(190, 100%, 70%)"/>
<rect x="14" y="3" width="1" height="1" fill="hsl(190, 100%, 70%)"/>
<rect x="15" y="3" width="1" height="1" fill="hsl(190, 100%, 70%)"/>
<rect x="16" y="3" width="1" height="1" fill="hsl(105, 39%, 30%)"/>
<rect x="17" y="3" width="1" height="1" fill="hsl(105, 69%, 30%)"/>
<rect x="18" y="3" width="1" height="1" fill="hsl(105, 39%, 30%)"/>
<rect x="19" y="3" width="1" height="1" fill="hsl(105, 69%, 30%)"/>
<rect y="4" width="1" height="1" fill="hsl(0, 0%, 0%)"/>
<rect x="1" y="4" width="1" height="1" fill="hsl(0, 0%, 100%)"/>
<rect x="2" y="4" width="1" height="1" fill="hsl(190, 100%, 70%)"/>
<rect x="3" y="4" width="1" height="1" fill="hsl(105, 69%, 30%)"/>
<rect x="4" y="4" width="1" height="1" fill="hsl(105, 39%, 30%)"/>
<rect x="5" y="4" width="1" height="1" fill="hsl(105, 69%, 30%)"/>
<rect x="6" y="4" width="1" height="1" fill="hsl(105, 39%, 30%)"/>
<rect x="7" y="4" width="1" height="1" fill="hsl(190, 100%, 70%)"/>
<rect x="8" y="4" width="1" height="1" fill="hsl(105, 35%, 30%)"/>
<rect x="9" y="4" width="1" height="1" fill="hsl(105, 69%, 30%)"/>
<rect x="10" y="4" width="1" height="1" fill="hsl(105, 69%, 30%)"/>
<rect x="11" y="4" width="1" height="1" fill="hsl(105, 35%, 30%)"/>
<rect x="12" y="4" width="1" height="1" fill="hsl(105, 69%, 30%)"/>
<rect x="13" y="4" width="1" height="1" fill="hsl(190, 100%, 70%)"/>
<rect x="14" y="4" width="1" height="1" fill="hsl(190, 100%, 70%)"/>
<rect x="15" y="4" width="1" height="1" fill="hsl(190, 100%, 70%)"/>
<rect x="16" y="4" width="1" height="1" fill="hsl(105, 69%, 30%)"/>
<rect x="17" y="4" width="1" height="1" fill="hsl(105, 39%, 30%)"/>
<rect x="18" y="4" width="1" height="1" fill="hsl(105, 69%, 30%)"/>
<rect x="19" y="4" width="1" height="1" fill="hsl(105, 39%, 30%)"/>
<rect y="5" width="1" height="1" fill="hsl(0, 0%, 0%)"/>
<rect x="1" y="5" width="1" height="1" fill="hsl(190, 100%, 70%)"/>
<rect x="2" y="5" width="1" height="1" fill="hsl(190, 100%, 70%)"/>
<rect x="3" y="5" width="1" height="1" fill="hsl(105, 39%, 30%)"/>
<rect x="4" y="5" width="1" height="1" fill="hsl(105, 69%, 30%)"/>
<rect x="5" y="5" width="1" height="1" fill="hsl(105, 39%, 30%)"/>
<rect x="6" y="5" width="1" height="1" fill="hsl(105, 25%, 30%)"/>
<rect x="7" y="5" width="1" height="1" fill="hsl(105, 69%, 30%)"/>
<rect x="8" y="5" width="1" height="1" fill="hsl(105, 69%, 30%)"/>
<rect x="9" y="5" width="1" height="1" fill="hsl(105, 69%, 30%)"/>
<rect x="10" y="5" width="1" height="1" fill="hsl(190, 100%, 70%)"/>
<rect x="11" y="5" width="1" height="1" fill="hsl(105, 69%, 30%)"/>
<rect x="12" y="5" width="1" height="1" fill="hsl(105, 35%, 30%)"/>
<rect x="13" y="5" width="1" height="1" fill="hsl(190, 100%, 70%)"/>
<rect x="14" y="5" width="1" height="1" fill="hsl(190, 100%, 70%)"/>
<rect x="15" y="5" width="1" height="1" fill="hsl(105, 69%, 30%)"/>
<rect x="16" y="5" width="1" height="1" fill="hsl(105, 39%, 30%)"/>
<rect x="17" y="5" width="1" height="1" fill="hsl(105, 69%, 30%)"/>
<rect x="18" y="5" width="1" height="1" fill="hsl(105, 39%, 30%)"/>
<rect x="19" y="5" width="1" height="1" fill="hsl(105, 69%, 30%)"/>
<rect y="6" width="1" height="1" fill="hsl(0, 0%, 0%)"/>
<rect x="1" y="6" width="1" height="1" fill="hsl(190, 100%, 70%)"/>
<rect x="2" y="6" width="1" height="1" fill="hsl(190, 100%, 70%)"/>
<rect x="3" y="6" width="1" height="1" fill="hsl(105, 69%, 30%)"/>
<rect x="4" y="6" width="1" height="1" fill="hsl(105, 39%, 30%)"/>
<rect x="5" y="6" width="1" height="1" fill="hsl(105, 69%, 30%)"/>
<rect x="6" y="6" width="1" height="1" fill="hsl(105, 25%, 30%)"/>
<rect x="7" y="6" width="1" height="1" fill="hsl(105, 69%, 30%)"/>
<rect x="8" y="6" width="1" height="1" fill="hsl(105, 69%, 30%)"/>
<rect x="9" y="6" width="1" height="1" fill="hsl(105, 39%, 30%)"/>
<rect x="10" y="6" width="1" height="1" fill="hsl(105, 69%, 30%)"/>
<rect x="11" y="6" width="1" height="1" fill="hsl(105, 35%, 30%)"/>
<rect x="12" y="6" width="1" height="1" fill="hsl(105, 69%, 30%)"/>
<rect x="13" y="6" width="1" height="1" fill="hsl(105, 35%, 30%)"/>
<rect x="14" y="6" width="1" height="1" fill="hsl(105, 69%, 30%)"/>
<rect x="15" y="6" width="1" height="1" fill="hsl(105, 39%, 30%)"/>
<rect x="16" y="6" width="1" height="1" fill="hsl(105, 69%, 30%)"/>
<rect x="17" y="6" width="1" height="1" fill="hsl(105, 39%, 30%)"/>
<rect x="18" y="6" width="1" height="1" fill="hsl(105, 69%, 30%)"/>
<rect x="19" y="6" width="1" height="1" fill="hsl(105, 39%, 30%)"/>
<rect y="7" width="1" height="1" fill="hsl(0, 0%, 0%)"/>
<rect x="1" y="7" width="1" height="1" fill="hsl(190, 100%, 70%)"/>
<rect x="2" y="7" width="1" height="1" fill="hsl(190, 100%, 70%)"/>
<rect x="3" y="7" width="1" height="1" fill="hsl(10, 75%, 40%)"/>
<rect x="4" y="7" width="1" height="1" fill="hsl(10, 75%, 40%)"/>
<rect x="5" y="7" width="1" height="1" fill="hsl(30, 100%, 40%)"/>
<rect x="6" y="7" width="1" height="1" fill="hsl(50, 98%, 50%)"/>
<rect x="7" y="7" width="1" height="1" fill="hsl(105, 39%, 30%)"/>
<rect x="8" y="7" width="1" height="1" fill="hsl(105, 25%, 30%)"/>
<rect x="9" y="7" width="1" height="1" fill="hsl(105, 39%, 30%)"/>
<rect x="10" y="7" width="1" height="1" fill="hsl(105, 35%, 30%)"/>
<rect x="11" y="7" width="1" height="1" fill="hsl(105, 69%, 30%)"/>
<rect x="12" y="7" width="1" height="1" fill="hsl(105, 35%, 30%)"/>
<rect x="13" y="7" width="1" height="1" fill="hsl(105, 69%, 30%)"/>
<rect x="14" y="7" width="1" height="1" fill="hsl(105, 39%, 30%)"/>
<rect x="15" y="7" width="1" height="1" fill="hsl(105, 69%, 30%)"/>
<rect x="16" y="7" width="1" height="1" fill="hsl(105, 39%, 30%)"/>
<rect x="17" y="7" width="1" height="1" fill="hsl(105, 69%, 30%)"/>
<rect x="18" y="7" width="1" height="1" fill="hsl(105, 39%, 30%)"/>
<rect x="19" y="7" width="1" height="1" fill="hsl(105, 69%, 30%)"/>
<rect y="8" width="1" height="1" fill="hsl(0, 0%, 0%)"/>
<rect x="1" y="8" width="1" height="1" fill="hsl(10, 75%, 40%)"/>
<rect x="2" y="8" width="1" height="1" fill="hsl(10, 75%, 40%)"/>
<rect x="3" y="8" width="1" height="1" fill="hsl(30, 100%, 40%)"/>
<rect x="4" y="8" width="1" height="1" fill="hsl(30, 100%, 40%)"/>
<rect x="5" y="8" width="1" height="1" fill="hsl(50, 98%, 50%)"/>
<rect x="6" y="8" width="1" height="1" fill="hsl(30, 100%, 40%)"/>
<rect x="7" y="8" width="1" height="1" fill="hsl(105, 69%, 30%)"/>
<rect x="8" y="8" width="1" height="1" fill="hsl(105, 39%, 30%)"/>
<rect x="9" y="8" width="1" height="1" fill="hsl(190, 100%, 70%)"/>
<rect x="10" y="8" width="1" height="1" fill="hsl(105, 69%, 30%)"/>
<rect x="11" y="8" width="1" height="1" fill="hsl(105, 35%, 30%)"/>
<rect x="12" y="8" width="1" height="1" fill="hsl(105, 69%, 30%)"/>
<rect x="13" y="8" width="1" height="1" fill="hsl(105, 35%, 30%)"/>
<rect x="14" y="8" width="1" height="1" fill="hsl(190, 100%, 70%)"/>
<rect x="15" y="8" width="1" height="1" fill="hsl(105, 39%, 30%)"/>
<rect x="16" y="8" width="1" height="1" fill="hsl(105, 69%, 30%)"/>
<rect x="17" y="8" width="1" height="1" fill="hsl(105, 39%, 30%)"/>
<rect x="18" y="8" width="1" height="1" fill="hsl(105, 69%, 30%)"/>
<rect x="19" y="8" width="1" height="1" fill="hsl(105, 39%, 30%)"/>
<rect y="9" width="1" height="1" fill="hsl(0, 0%, 0%)"/>
<rect x="1" y="9" width="1" height="1" fill="hsl(10, 75%, 40%)"/>
<rect x="2" y="9" width="1" height="1" fill="hsl(30, 100%, 40%)"/>
<rect x="3" y="9" width="1" height="1" fill="hsl(30, 100%, 40%)"/>
<rect x="4" y="9" width="1" height="1" fill="hsl(50, 98%, 50%)"/>
<rect x="5" y="9" width="1" height="1" fill="hsl(30, 100%, 40%)"/>
<rect x="6" y="9" width="1" height="1" fill="hsl(10, 75%, 40%)"/>
<rect x="7" y="9" width="1" height="1" fill="hsl(105, 39%, 30%)"/>
<rect x="8" y="9" width="1" height="1" fill="hsl(190, 100%, 70%)"/>
<rect x="9" y="9" width="1" height="1" fill="hsl(190, 100%, 70%)"/>
<rect x="10" y="9" width="1" height="1" fill="hsl(105, 35%, 30%)"/>
<rect x="11" y="9" width="1" height="1" fill="hsl(105, 69%, 30%)"/>
<rect x="12" y="9" width="1" height="1" fill="hsl(105, 35%, 30%)"/>
<rect x="13" y="9" width="1" height="1" fill="hsl(105, 69%, 30%)"/>
<rect x="14" y="9" width="1" height="1" fill="hsl(190, 100%, 70%)"/>
<rect x="15" y="9" width="1" height="1" fill="hsl(190, 100%, 70%)"/>
<rect x="16" y="9" width="1" height="1" fill="hsl(105, 39%, 30%)"/>
<rect x="17" y="9" width="1" height="1" fill="hsl(105, 69%, 30%)"/>
<rect x="18" y="9" width="1" height="1" fill="hsl(105, 39%, 30%)"/>
<rect x="19" y="9" width="1" height="1" fill="hsl(0, 0%, 0%)"/>
<rect y="10" width="1" height="1" fill="hsl(10, 75%, 40%)"/>
<rect x="1" y="10" width="1" height="1" fill="hsl(30, 100%, 40%)"/>
<rect x="2" y="10" width="1" height="1" fill="hsl(50, 98%, 50%)"/>
<rect x="3" y="10" width="1" height="1" fill="hsl(50, 98%, 50%)"/>
<rect x="4" y="10" width="1" height="1" fill="hsl(30, 100%, 40%)"/>
<rect x="5" y="10" width="1" height="1" fill="hsl(30, 100%, 40%)"/>
<rect x="6" y="10" width="1" height="1" fill="hsl(10, 75%, 40%)"/>
<rect x="7" y="10" width="1" height="1" fill="hsl(190, 100%, 70%)"/>
<rect x="8" y="10" width="1" height="1" fill="hsl(190, 100%, 70%)"/>
<rect x="9" y="10" width="1" height="1" fill="hsl(190, 100%, 70%)"/>
<rect x="10" y="10" width="1" height="1" fill="hsl(105, 69%, 30%)"/>
<rect x="11" y="10" width="1" height="1" fill="hsl(105, 35%, 30%)"/>
<rect x="12" y="10" width="1" height="1" fill="hsl(105, 69%, 30%)"/>
<rect x="13" y="10" width="1" height="1" fill="hsl(105, 35%, 30%)"/>
<rect x="14" y="10" width="1" height="1" fill="hsl(190, 100%, 70%)"/>
<rect x="15" y="10" width="1" height="1" fill="hsl(190, 100%, 70%)"/>
<rect x="16" y="10" width="1" height="1" fill="hsl(190, 100%, 70%)"/>
<rect x="17" y="10" width="1" height="1" fill="hsl(105, 39%, 30%)"/>
<rect x="18" y="10" width="1" height="1" fill="hsl(190, 100%, 70%)"/>
<rect x="19" y="10" width="1" height="1" fill="hsl(0, 0%, 0%)"/>
<rect y="11" width="1" height="1" fill="hsl(30, 100%, 40%)"/>
<rect x="1" y="11" width="1" height="1" fill="hsl(30, 100%, 40%)"/>
<rect x="2" y="11" width="1" height="1" fill="hsl(50, 98%, 50%)"/>
<rect x="3" y="11" width="1" height="1" fill="hsl(50, 98%, 50%)"/>
<rect x="4" y="11" width="1" height="1" fill="hsl(30, 100%, 40%)"/>
<rect x="5" y="11" width="1" height="1" fill="hsl(10, 75%, 40%)"/>
<rect x="6" y="11" width="1" height="1" fill="hsl(190, 100%, 70%)"/>
<rect x="7" y="11" width="1" height="1" fill="hsl(190, 100%, 70%)"/>
<rect x="8" y="11" width="1" height="1" fill="hsl(190, 100%, 70%)"/>
<rect x="9" y="11" width="1" height="1" fill="hsl(190, 100%, 70%)"/>
<rect x="10" y="11" width="1" height="1" fill="hsl(190, 100%, 70%)"/>
<rect x="11" y="11" width="1" height="1" fill="hsl(105, 69%, 30%)"/>
<rect x="12" y="11" width="1" height="1" fill="hsl(105, 35%, 30%)"/>
<rect x="13" y="11" width="1" height="1" fill="hsl(190, 100%, 70%)"/>
<rect x="14" y="11" width="1" height="1" fill="hsl(190, 100%, 70%)"/>
<rect x="15" y="11" width="1" height="1" fill="hsl(190, 100%, 70%)"/>
<rect x="16" y="11" width="1" height="1" fill="hsl(190, 100%, 70%)"/>
<rect x="17" y="11" width="1" height="1" fill="hsl(190, 100%, 70%)"/>
<rect x="18" y="11" width="1" height="1" fill="hsl(0, 0%, 100%)"/>
<rect x="19" y="11" width="1" height="1" fill="hsl(0, 0%, 0%)"/>
<rect y="12" width="1" height="1" fill="hsl(50, 98%, 50%)"/>
<rect x="1" y="12" width="1" height="1" fill="hsl(50, 98%, 50%)"/>
<rect x="2" y="12" width="1" height="1" fill="hsl(30, 100%, 40%)"/>
<rect x="3" y="12" width="1" height="1" fill="hsl(30, 100%, 40%)"/>
<rect x="4" y="12" width="1" height="1" fill="hsl(10, 75%, 40%)"/>
<rect x="5" y="12" width="1" height="1" fill="hsl(10, 75%, 40%)"/>
<rect x="6" y="12" width="1" height="1" fill="hsl(190, 100%, 70%)"/>
<rect x="7" y="12" width="1" height="1" fill="hsl(190, 100%, 70%)"/>
<rect x="8" y="12" width="1" height="1" fill="hsl(190, 100%, 70%)"/>
<rect x="9" y="12" width="1" height="1" fill="hsl(190, 100%, 70%)"/>
<rect x="10" y="12" width="1" height="1" fill="hsl(105, 69%, 30%)"/>
<rect x="11" y="12" width="1" height="1" fill="hsl(105, 35%, 30%)"/>
<rect x="12" y="12" width="1" height="1" fill="hsl(105, 69%, 30%)"/>
<rect x="13" y="12" width="1" height="1" fill="hsl(190, 100%, 70%)"/>
<rect x="14" y="12" width="1" height="1" fill="hsl(105, 69%, 30%)"/>
<rect x="15" y="12" width="1" height="1" fill="hsl(105, 35%, 30%)"/>
<rect x="16" y="12" width="1" height="1" fill="hsl(190, 100%, 70%)"/>
<rect x="17" y="12" width="1" height="1" fill="hsl(0, 0%, 100%)"/>
<rect x="18" y="12" width="1" height="1" fill="hsla(0, 2%, 91%, 1.00)"/>
<rect x="19" y="12" width="1" height="1" fill="hsl(0, 0%, 0%)"/>
<rect y="13" width="1" height="1" fill="hsl(50, 98%, 50%)"/>
<rect x="1" y="13" width="1" height="1" fill="hsl(50, 98%, 50%)"/>
<rect x="2" y="13" width="1" height="1" fill="hsl(30, 100%, 40%)"/>
<rect x="3" y="13" width="1" height="1" fill="hsl(10, 75%, 40%)"/>
<rect x="4" y="13" width="1" height="1" fill="hsl(190, 100%, 70%)"/>
<rect x="5" y="13" width="1" height="1" fill="hsl(190, 100%, 70%)"/>
<rect x="6" y="13" width="1" height="1" fill="hsl(190, 100%, 70%)"/>
<rect x="7" y="13" width="1" height="1" fill="hsl(190, 100%, 70%)"/>
<rect x="8" y="13" width="1" height="1" fill="hsl(190, 100%, 70%)"/>
<rect x="9" y="13" width="1" height="1" fill="hsl(190, 100%, 70%)"/>
<rect x="10" y="13" width="1" height="1" fill="hsl(105, 35%, 30%)"/>
<rect x="11" y="13" width="1" height="1" fill="hsl(105, 69%, 30%)"/>
<rect x="12" y="13" width="1" height="1" fill="hsl(190, 100%, 70%)"/>
<rect x="13" y="13" width="1" height="1" fill="hsl(190, 100%, 70%)"/>
<rect x="14" y="13" width="1" height="1" fill="hsl(190, 100%, 70%)"/>
<rect x="15" y="13" width="1" height="1" fill="hsl(105, 69%, 30%)"/>
<rect x="16" y="13" width="1" height="1" fill="hsl(105, 35%, 30%)"/>
<rect x="17" y="13" width="1" height="1" fill="hsl(190, 100%, 70%)"/>
<rect x="18" y="13" width="1" height="1" fill="hsl(0, 0%, 100%)"/>
<rect x="19" y="13" width="1" height="1" fill="hsl(0, 0%, 0%)"/>
<rect y="14" width="1" height="1" fill="hsl(30, 100%, 40%)"/>
<rect x="1" y="14" width="1" height="1" fill="hsl(30, 100%, 40%)"/>
<rect x="2" y="14" width="1" height="1" fill="hsl(10, 75%, 40%)"/>
<rect x="3" y="14" width="1" height="1" fill="hsl(10, 75%, 40%)"/>
<rect x="4" y="14" width="1" height="1" fill="hsl(190, 100%, 70%)"/>
<rect x="5" y="14" width="1" height="1" fill="hsl(190, 100%, 70%)"/>
<rect x="6" y="14" width="1" height="1" fill="hsl(0, 0%, 60%)"/>
<rect x="7" y="14" width="1" height="1" fill="hsl(190, 100%, 70%)"/>
<rect x="8" y="14" width="1" height="1" fill="hsl(190, 100%, 70%)"/>
<rect x="9" y="14" width="1" height="1" fill="hsl(190, 100%, 70%)"/>
<rect x="10" y="14" width="1" height="1" fill="hsl(105, 69%, 30%)"/>
<rect x="11" y="14" width="1" height="1" fill="hsl(105, 35%, 30%)"/>
<rect x="12" y="14" width="1" height="1" fill="hsl(105, 69%, 30%)"/>
<rect x="13" y="14" width="1" height="1" fill="hsl(190, 100%, 70%)"/>
<rect x="14" y="14" width="1" height="1" fill="hsl(105, 69%, 30%)"/>
<rect x="15" y="14" width="1" height="1" fill="hsl(105, 35%, 30%)"/>
<rect x="16" y="14" width="1" height="1" fill="hsl(105, 69%, 30%)"/>
<rect x="17" y="14" width="1" height="1" fill="hsl(190, 100%, 70%)"/>
<rect x="18" y="14" width="1" height="1" fill="hsl(190, 100%, 70%)"/>
<rect x="19" y="14" width="1" height="1" fill="hsl(0, 0%, 0%)"/>
<rect y="15" width="1" height="1" fill="hsl(30, 100%, 40%)"/>
<rect x="1" y="15" width="1" height="1" fill="hsl(30, 100%, 40%)"/>
<rect x="2" y="15" width="1" height="1" fill="hsl(10, 75%, 40%)"/>
<rect x="3" y="15" width="1" height="1" fill="hsl(190, 100%, 70%)"/>
<rect x="4" y="15" width="1" height="1" fill="hsl(190, 100%, 70%)"/>
<rect x="5" y="15" width="1" height="1" fill="hsl(0, 0%, 45%)"/>
<rect x="6" y="15" width="1" height="1" fill="hsl(0, 0%, 60%)"/>
<rect x="7" y="15" width="1" height="1" fill="hsl(190, 100%, 70%)"/>
<rect x="8" y="15" width="1" height="1" fill="hsl(0, 0%, 60%)"/>
<rect x="9" y="15" width="1" height="1" fill="hsl(190, 100%, 70%)"/>
<rect x="10" y="15" width="1" height="1" fill="hsl(190, 100%, 70%)"/>
<rect x="11" y="15" width="1" height="1" fill="hsl(105, 69%, 30%)"/>
<rect x="12" y="15" width="1" height="1" fill="hsl(105, 35%, 30%)"/>
<rect x="13" y="15" width="1" height="1" fill="hsl(105, 69%, 30%)"/>
<rect x="14" y="15" width="1" height="1" fill="hsl(105, 35%, 30%)"/>
<rect x="15" y="15" width="1" height="1" fill="hsl(105, 69%, 30%)"/>
<rect x="16" y="15" width="1" height="1" fill="hsl(190, 100%, 70%)"/>
<rect x="17" y="15" width="1" height="1" fill="hsl(190, 100%, 70%)"/>
<rect x="18" y="15" width="1" height="1" fill="hsl(190, 100%, 70%)"/>
<rect x="19" y="15" width="1" height="1" fill="hsl(0, 0%, 0%)"/>
<rect y="16" width="1" height="1" fill="hsl(10, 75%, 40%)"/>
<rect x="1" y="16" width="1" height="1" fill="hsl(10, 75%, 40%)"/>
<rect x="2" y="16" width="1" height="1" fill="hsl(10, 75%, 40%)"/>
<rect x="3" y="16" width="1" height="1" fill="hsl(190, 100%, 70%)"/>
<rect x="4" y="16" width="1" height="1" fill="hsl(0, 0%, 45%)"/>
<rect x="5" y="16" width="1" height="1" fill="hsl(0, 0%, 45%)"/>
<rect x="6" y="16" width="1" height="1" fill="hsl(0, 0%, 60%)"/>
<rect x="7" y="16" width="1" height="1" fill="hsl(0, 0%, 45%)"/>
<rect x="8" y="16" width="1" height="1" fill="hsl(0, 0%, 60%)"/>
<rect x="9" y="16" width="1" height="1" fill="hsl(0, 0%, 60%)"/>
<rect x="10" y="16" width="1" height="1" fill="hsl(190, 100%, 70%)"/>
<rect x="11" y="16" width="1" height="1" fill="hsl(190, 100%, 70%)"/>
<rect x="12" y="16" width="1" height="1" fill="hsl(190, 100%, 70%)"/>
<rect x="13" y="16" width="1" height="1" fill="hsl(105, 35%, 30%)"/>
<rect x="14" y="16" width="1" height="1" fill="hsl(190, 100%, 70%)"/>
<rect x="15" y="16" width="1" height="1" fill="hsl(190, 100%, 70%)"/>
<rect x="16" y="16" width="1" height="1" fill="hsl(190, 100%, 70%)"/>
<rect x="17" y="16" width="1" height="1" fill="hsl(0, 0%, 60%)"/>
<rect x="18" y="16" width="1" height="1" fill="hsl(190, 100%, 70%)"/>
<rect x="19" y="16" width="1" height="1" fill="hsl(0, 0%, 0%)"/>
<rect y="17" width="1" height="1" fill="hsl(10, 75%, 40%)"/>
<rect x="1" y="17" width="1" height="1" fill="hsl(190, 100%, 70%)"/>
<rect x="2" y="17" width="1" height="1" fill="hsl(190, 100%, 70%)"/>
<rect x="3" y="17" width="1" height="1" fill="hsl(0, 0%, 45%)"/>
<rect x="4" y="17" width="1" height="1" fill="hsl(0, 0%, 45%)"/>
<rect x="5" y="17" width="1" height="1" fill="hsl(0, 0%, 60%)"/>
<rect x="6" y="17" width="1" height="1" fill="hsl(0, 0%, 45%)"/>
<rect x="7" y="17" width="1" height="1" fill="hsl(0, 0%, 45%)"/>
<rect x="8" y="17" width="1" height="1" fill="hsl(0, 0%, 60%)"/>
<rect x="9" y="17" width="1" height="1" fill="hsl(0, 0%, 60%)"/>
<rect x="10" y="17" width="1" height="1" fill="hsl(0, 0%, 45%)"/>
<rect x="11" y="17" width="1" height="1" fill="hsl(0, 0%, 60%)"/>
<rect x="12" y="17" width="1" height="1" fill="hsl(190, 100%, 70%)"/>
<rect x="13" y="17" width="1" height="1" fill="hsl(0, 0%, 45%)"/>
<rect x="14" y="17" width="1" height="1" fill="hsl(190, 100%, 70%)"/>
<rect x="15" y="17" width="1" height="1" fill="hsl(0, 0%, 60%)"/>
<rect x="16" y="17" width="1" height="1" fill="hsl(190, 100%, 70%)"/>
<rect x="17" y="17" width="1" height="1" fill="hsl(0, 0%, 45%)"/>
<rect x="18" y="17" width="1" height="1" fill="hsl(0, 0%, 60%)"/>
<rect x="19" y="17" width="1" height="1" fill="hsl(0, 0%, 0%)"/>
<rect y="18" width="1" height="1" fill="hsl(0, 0%, 0%)"/>
<rect x="1" y="18" width="1" height="1" fill="hsl(190, 100%, 70%)"/>
<rect x="2" y="18" width="1" height="1" fill="hsl(0, 0%, 45%)"/>
<rect x="3" y="18" width="1" height="1" fill="hsl(0, 0%, 45%)"/>
<rect x="4" y="18" width="1" height="1" fill="hsl(0, 0%, 60%)"/>
<rect x="5" y="18" width="1" height="1" fill="hsl(0, 0%, 45%)"/>
<rect x="6" y="18" width="1" height="1" fill="hsl(0, 0%, 45%)"/>
<rect x="7" y="18" width="1" height="1" fill="hsl(0, 0%, 45%)"/>
<rect x="8" y="18" width="1" height="1" fill="hsl(0, 0%, 45%)"/>
<rect x="9" y="18" width="1" height="1" fill="hsl(0, 0%, 60%)"/>
<rect x="10" y="18" width="1" height="1" fill="hsl(0, 0%, 60%)"/>
<rect x="11" y="18" width="1" height="1" fill="hsl(0, 0%, 60%)"/>
<rect x="12" y="18" width="1" height="1" fill="hsl(0, 0%, 45%)"/>
<rect x="13" y="18" width="1" height="1" fill="hsl(0, 0%, 60%)"/>
<rect x="14" y="18" width="1" height="1" fill="hsl(0, 0%, 60%)"/>
<rect x="15" y="18" width="1" height="1" fill="hsl(0, 0%, 60%)"/>
<rect x="16" y="18" width="1" height="1" fill="hsl(0, 0%, 45%)"/>
<rect x="17" y="18" width="1" height="1" fill="hsl(0, 0%, 45%)"/>
<rect x="18" y="18" width="1" height="1" fill="hsl(0, 0%, 60%)"/>
<rect x="19" y="18" width="1" height="1" fill="hsl(0, 0%, 60%)"/>
<rect y="19" width="1" height="1" fill="hsl(0, 0%, 0%)"/>
<rect x="1" y="19" width="1" height="1" fill="hsl(0, 0%, 0%)"/>
<rect x="2" y="19" width="1" height="1" fill="hsl(0, 0%, 0%)"/>
<rect x="3" y="19" width="1" height="1" fill="hsl(0, 0%, 0%)"/>
<rect x="4" y="19" width="1" height="1" fill="hsl(0, 0%, 0%)"/>
<rect x="5" y="19" width="1" height="1" fill="hsl(0, 0%, 0%)"/>
<rect x="6" y="19" width="1" height="1" fill="hsl(0, 0%, 15%)"/>
<rect x="7" y="19" width="1" height="1" fill="hsl(0, 0%, 0%)"/>
<rect x="8" y="19" width="1" height="1" fill="hsl(0, 0%, 0%)"/>
<rect x="9" y="19" width="1" height="1" fill="hsl(0, 0%, 0%)"/>
<rect x="10" y="19" width="1" height="1" fill="hsl(0, 0%, 0%)"/>
<rect x="11" y="19" width="1" height="1" fill="hsl(0, 0%, 0%)"/>
<rect x="12" y="19" width="1" height="1" fill="hsl(0, 0%, 0%)"/>
<rect x="13" y="19" width="1" height="1" fill="hsl(0, 0%, 0%)"/>
<rect x="14" y="19" width="1" height="1" fill="hsl(0, 0%, 0%)"/>
<rect x="15" y="19" width="1" height="1" fill="hsl(0, 0%, 0%)"/>
<rect x="16" y="19" width="1" height="1" fill="hsl(0, 0%, 0%)"/>
<rect x="17" y="19" width="1" height="1" fill="hsl(0, 0%, 0%)"/>
<rect x="18" y="19" width="1" height="1" fill="hsl(0, 0%, 0%)"/>
<rect x="19" y="19" width="1" height="1" fill="hsl(0, 0%, 0%)"/>
</pattern>
</defs>
<rect width="100%" height="100%" fill="url(#a)"/>
</svg>
